:SAMPLES-PER-SECOND 30
:FULLY-SPECIFIED
:DEGREES
31
root  73.4938 39.4641 -11.7994 -7.96658 -85.8945 7.09164
RightUpLeg  -2.18142 -7.07816 -4.51806
RightLeg  4.49049 12.2356 -0.532976
RightFoot  -1.61205 -0.213889 2.31042
RightToes  -1.16417e-010 0 -3.6325e-017
Spine  -8.45564 1.39144 2.61767
Spine1  12.3547 1.88739 -2.53942
HEad  -11.8196 -9.5672 1.79316
LeftShoulder1  -0.427477 4.62824 -31.8798
LeftArm  0.29599 10.0743 -41.8794
LeftForeArm  26.3994 -15.2322 -6.49548
LeftHand  -0.180439 10.7213 -2.25709
RightShoulder  -1.00329 -6.09313 32.1504
RightArm  18.4229 0.114991 46.2524
RightForeArm  17.3528 9.97748 8.01846
RightHand  -0.0701598 3.99737 -1.13661
LeftUpLeg  3.712 7.88378 3.10451
LeftLeg  2.54754 13.5298 0.0257121
LeftFoot  -4.01925 0.0980903 -1.18485
LeftToes  1.47335e-010 -1.29615e-010 3.08757e-011
32
root  73.483 39.4644 -11.8093 -7.3724 -86.111 6.51169
RightUpLeg  -2.21158 -6.95299 -4.38372
RightLeg  4.46671 12.2954 -0.581436
RightFoot  -1.59804 -0.215985 2.35528
RightToes  -1.16417e-010 0 -3.6325e-017
Spine  -8.53075 1.57603 2.55997
Spine1  12.4482 1.99804 -2.25367
HEad  -11.7559 -9.42037 1.63147
LeftShoulder1  -0.403431 4.56164 -32.0003
LeftArm  0.069703 9.91013 -41.7998
LeftForeArm  27.1182 -14.8666 -6.64156
LeftHand  -0.165925 10.3587 -2.32793
RightShoulder  -1.00361 -6.1036 32.0098
RightArm  18.3891 -0.0742003 46.2026
RightForeArm  17.2101 10.1814 7.93001
RightHand  -0.0814827 4.10003 -1.27011
LeftUpLeg  3.7565 8.03405 3.2602
LeftLeg  2.52952 13.5757 -0.07257
LeftFoot  -4.07163 0.0997953 -1.21135
LeftToes  1.47335e-010 -1.29615e-010 3.08757e-011
33
root  73.4761 39.4642 -11.8235 -7.12266 -86.4659 6.3036
RightUpLeg  -2.31202 -6.77946 -4.22726
RightLeg  4.44947 12.5039 -0.654992
RightFoot  -1.51976 -0.205656 2.21355
RightToes  -1.16417e-010 0 -3.6325e-017
Spine  -8.52969 1.76323 2.63328
Spine1  12.455 2.15996 -2.18495
HEad  -11.7917 -9.26751 1.49084
LeftShoulder1  -0.405 4.56405 -32.0591
LeftArm  0.0951944 9.89321 -41.7459
LeftForeArm  27.4639 -14.8387 -6.65596
LeftHand  -0.173495 10.603 -2.46591
RightShoulder  -0.995392 -6.08878 31.9131
RightArm  18.4215 -0.181154 46.2206
RightForeArm  16.8106 10.3099 7.9026
RightHand  -0.1253 4.01354 -1.81707
LeftUpLeg  3.77404 8.19994 3.41601
LeftLeg  2.56976 13.6729 -0.183491
LeftFoot  -4.10938 0.0980921 -1.18488
LeftToes  1.47335e-010 -1.29615e-010 3.08757e-011
34
root  73.4793 39.4648 -11.8294 -6.8343 -86.4175 5.94429
RightUpLeg  -2.20684 -6.78837 -4.21672
RightLeg  4.40013 12.4434 -0.656701
RightFoot  -1.53855 -0.207913 2.27381
RightToes  -1.16417e-010 0 -3.6325e-017
Spine  -8.34705 1.70151 2.58056
Spine1  12.5114 2.0652 -2.04879
HEad  -11.9615 -9.22899 1.52365
LeftShoulder1  -0.45717 4.69888 -32.1153
LeftArm  0.141941 9.69713 -41.741
LeftForeArm  27.4655 -14.7897 -6.69478
LeftHand  -0.184772 10.9823 -2.47458
RightShoulder  -1.01035 -6.12787 31.9137
RightArm  18.4569 0.00845962 46.2095
RightForeArm  16.9319 10.3376 7.89684
RightHand  -0.109267 4.18434 -1.60243
LeftUpLeg  3.77937 8.27016 3.48794
LeftLeg  2.71423 13.5331 -0.202668
LeftFoot  -4.14052 0.0950576 -1.13771
LeftToes  1.47335e-010 -1.29615e-010 3.08757e-011
35
root  73.4867 39.4652 -11.8362 -5.59075 -86.3738 4.607
RightUpLeg  -2.0707 -6.79077 -4.15298
RightLeg  4.35631 12.3707 -0.634878
RightFoot  -1.56048 -0.206717 2.29138
RightToes  -1.16417e-010 0 -3.6325e-017
Spine  -7.87892 1.59847 3.06836
Spine1  12.2437 2.06809 -2.55331
HEad  -12.0101 -9.3118 1.93705
LeftShoulder1  -0.4481 4.68288 -31.8622
LeftArm  0.426228 9.84565 -41.7779
LeftForeArm  27.1451 -14.9971 -6.63706
LeftHand  -0.183482 11.0432 -2.41081
RightShoulder  -0.978864 -6.05298 31.8038
RightArm  18.3672 -0.120262 46.4812
RightForeArm  16.7962 10.406 7.86342
RightHand  -0.13637 4.14644 -1.92001
LeftUpLeg  3.8697 8.33427 3.61659
LeftLeg  2.68089 13.3956 -0.227106
LeftFoot  -4.16176 0.0928977 -1.10414
LeftToes  1.47335e-010 -1.29615e-010 3.08757e-011
